<svg width="55" height="57" viewBox="0 0 55 57" fill="none" xmlns="http://www.w3.org/2000/svg">
<path d="M51.1875 28.1399C51.1875 41.7316 40.4978 52.7624 27.3 52.7624C14.1022 52.7624 3.41251 41.7316 3.41251 28.1399C3.41251 14.536 14.1022 3.51746 27.3 3.51746C40.4978 3.51746 51.1875 14.536 51.1875 28.1399Z" fill="#283544"/>
<path d="M38.4966 21.9095C38.3662 21.9878 35.2632 23.642 35.2632 27.3096C35.4094 31.4924 39.1791 32.9592 39.2437 32.9592C39.1791 33.0376 38.6746 34.9574 37.1803 36.9699C35.9944 38.7035 34.6782 40.4513 32.6794 40.4513C30.7782 40.4513 30.0957 39.2959 27.9019 39.2959C25.546 39.2959 24.8794 40.4513 23.0757 40.4513C21.0769 40.4513 19.6632 38.6098 18.4126 36.8925C16.788 34.6449 15.4071 31.1178 15.3583 27.7311C15.3255 25.9364 15.6837 24.1723 16.593 22.6739C17.8764 20.5821 20.1676 19.162 22.6698 19.1152C24.5869 19.0531 26.2932 20.3795 27.4632 20.3795C28.5844 20.3795 30.6807 19.1152 33.0525 19.1152C34.0762 19.1162 36.8062 19.4124 38.4966 21.9095ZM27.301 18.7569C26.9598 17.118 27.9019 15.4791 28.7794 14.4337C29.9007 13.1694 31.6716 12.3113 33.1987 12.3113C33.2962 13.9502 32.6784 15.5575 31.5741 16.7281C30.5832 17.9924 28.8769 18.9442 27.301 18.7569Z" fill="white"/>
</svg>
