<svg width="237" height="71" viewBox="0 0 237 71" fill="none" xmlns="http://www.w3.org/2000/svg">
<path d="M235.357 61.9134C235.357 62.7969 235.183 63.6718 234.844 64.488C234.506 65.3042 234.01 66.0457 233.385 66.6702C232.759 67.2946 232.017 67.7897 231.2 68.1272C230.384 68.4647 229.508 68.6379 228.625 68.637H8.30394C6.51823 68.6388 4.80489 67.9316 3.54072 66.6707C2.27655 65.4098 1.56507 63.6986 1.56274 61.9134V8.29479C1.56507 6.50875 2.27627 4.79663 3.54019 3.53437C4.8041 2.2721 6.51742 1.56287 8.30394 1.56241H228.623C229.507 1.56241 230.383 1.73656 231.2 2.07491C232.016 2.41327 232.759 2.9092 233.384 3.53438C234.009 4.15957 234.505 4.90175 234.843 5.71855C235.181 6.53535 235.355 7.41077 235.355 8.29479L235.357 61.9134Z" fill="white"/>
<path d="M228.625 70.2011H8.30401C6.10422 70.2007 3.99446 69.3278 2.43766 67.774C0.880861 66.2203 0.00418559 64.1126 0 61.9134L0 8.29655C0.00325427 6.09625 0.879351 3.98708 2.4361 2.43173C3.99285 0.876384 6.10313 0.00185713 8.30401 0L228.623 0C230.823 0.0027838 232.933 0.877608 234.49 2.43276C236.046 3.98791 236.923 6.09654 236.927 8.29655V61.9134C236.93 66.4847 233.199 70.2011 228.625 70.2011Z" fill="#A6A6A6"/>
<path d="M235.357 61.9134C235.357 62.7969 235.183 63.6718 234.844 64.488C234.506 65.3042 234.01 66.0457 233.385 66.6702C232.759 67.2946 232.017 67.7897 231.2 68.1272C230.384 68.4647 229.508 68.6379 228.625 68.637H8.30394C6.51823 68.6388 4.80489 67.9316 3.54072 66.6707C2.27655 65.4098 1.56507 63.6986 1.56274 61.9134V8.29479C1.56507 6.50875 2.27627 4.79663 3.54019 3.53437C4.8041 2.2721 6.51742 1.56287 8.30394 1.56241H228.623C229.507 1.56241 230.383 1.73656 231.2 2.07491C232.016 2.41327 232.759 2.9092 233.384 3.53438C234.009 4.15957 234.505 4.90175 234.843 5.71855C235.181 6.53535 235.355 7.41077 235.355 8.29479L235.357 61.9134Z" fill="black"/>
<path d="M52.904 34.731C52.8531 29.073 57.5381 26.3204 57.7523 26.1922C55.099 22.3248 50.9865 21.7964 49.5414 21.7543C46.0873 21.3909 42.7369 23.8205 40.9775 23.8205C39.1829 23.8205 36.4734 21.7894 33.5532 21.8491C29.7954 21.907 26.2799 24.0821 24.3519 27.4597C20.3728 34.3466 23.3404 44.4671 27.1527 50.0338C29.0597 52.7619 31.288 55.8042 34.2047 55.6971C37.0581 55.5812 38.124 53.8801 41.5675 53.8801C44.9793 53.8801 45.9802 55.6971 48.9549 55.6286C52.0173 55.5812 53.9453 52.89 55.7856 50.1392C57.9894 47.0161 58.8744 43.9369 58.9095 43.7789C58.8392 43.7544 52.9638 41.5108 52.904 34.731ZM47.2849 18.0923C48.8196 16.1735 49.8697 13.5631 49.5782 10.914C47.3569 11.0123 44.579 12.4501 42.9793 14.3267C41.564 15.9804 40.2997 18.6909 40.6263 21.2399C43.1215 21.426 45.6835 19.9812 47.2849 18.0923Z" fill="white"/>
<path d="M228.625 7.62939e-06H110.614L156.837 70.2011H228.625C230.825 70.1993 232.935 69.3252 234.491 67.7706C236.048 66.2161 236.924 64.1078 236.929 61.9081V8.29655C236.925 6.0964 236.049 3.9875 234.492 2.43225C232.935 0.877004 230.825 0.00232827 228.625 7.62939e-06Z" fill="url(#paint0_linear_1008_1200)"/>
<path d="M94.2345 55.3056H90.2467L88.0622 48.4433H80.4694L78.3886 55.3056H74.5061L82.0305 31.9433H86.6768L94.2345 55.3056ZM87.4038 45.5643L85.4283 39.4639C85.2193 38.8407 84.826 37.3731 84.25 35.0628H84.1798C83.948 36.0565 83.5775 37.5241 83.07 39.4639L81.1279 45.5643H87.4038ZM113.547 46.6755C113.547 49.5405 112.769 51.8051 111.211 53.4676C109.817 54.9475 108.084 55.6866 106.017 55.6866C103.785 55.6866 102.18 54.8913 101.206 53.2973V62.1363H97.462V43.9966C97.462 42.1972 97.4146 40.3522 97.3233 38.4598H100.616L100.825 41.1299H100.895C102.143 39.1181 104.038 38.1122 106.581 38.1122C108.569 38.1122 110.228 38.8969 111.555 40.4681C112.881 42.0427 113.547 44.1107 113.547 46.6755ZM109.733 46.8125C109.733 45.1728 109.364 43.8211 108.623 42.7555C107.813 41.6478 106.727 41.093 105.364 41.093C104.44 41.093 103.601 41.402 102.851 42.0111C102.1 42.6256 101.608 43.4278 101.378 44.4215C101.275 44.7931 101.217 45.1755 101.204 45.5608V48.3714C101.204 49.595 101.58 50.629 102.331 51.4751C103.083 52.3178 104.059 52.7408 105.26 52.7408C106.67 52.7408 107.768 52.1949 108.553 51.1117C109.339 50.0251 109.733 48.5926 109.733 46.8125ZM132.927 46.6755C132.927 49.5405 132.15 51.8051 130.592 53.4676C129.196 54.9475 127.465 55.6866 125.396 55.6866C123.164 55.6866 121.559 54.8913 120.585 53.2973V62.1363H116.841V43.9966C116.841 42.1972 116.794 40.3522 116.702 38.4598H119.995L120.204 41.1299H120.274C121.521 39.1181 123.415 38.1122 125.96 38.1122C127.946 38.1122 129.605 38.8969 130.936 40.4681C132.26 42.0427 132.927 44.1107 132.927 46.6755ZM129.112 46.8125C129.112 45.1728 128.741 43.8211 128 42.7555C127.191 41.6478 126.107 41.093 124.745 41.093C123.821 41.093 122.982 41.402 122.228 42.0111C121.477 42.6256 120.987 43.4278 120.757 44.4215C120.643 44.8849 120.581 45.2624 120.581 45.5608V48.3714C120.581 49.595 120.959 50.629 121.707 51.4751C122.458 52.316 123.435 52.7408 124.639 52.7408C126.051 52.7408 127.149 52.1949 127.932 51.1117C128.718 50.0251 129.112 48.5926 129.112 46.8125ZM154.596 48.7523C154.596 50.7413 153.901 52.3581 152.519 53.6063C150.998 54.9686 148.875 55.6515 146.153 55.6515C143.639 55.6515 141.623 55.1669 140.102 54.1961L140.968 51.0766C142.61 52.0492 144.413 52.5337 146.376 52.5337C147.788 52.5337 148.886 52.2142 149.669 51.5804C150.454 50.9449 150.851 50.0953 150.851 49.0349C150.851 48.0852 150.522 47.29 149.878 46.6422C149.23 45.9962 148.159 45.394 146.654 44.841C142.562 43.3155 140.515 41.0842 140.515 38.149C140.515 36.232 141.238 34.6626 142.682 33.4355C144.125 32.2101 146.039 31.5975 148.42 31.5975C150.547 31.5975 152.319 31.9679 153.725 32.7069L152.786 35.758C151.462 35.0418 149.967 34.6836 148.296 34.6836C146.975 34.6836 145.939 35.0084 145.198 35.6544C144.575 36.232 144.259 36.936 144.259 37.7716C144.259 38.6932 144.619 39.4586 145.335 40.059C145.957 40.612 147.091 41.2141 148.731 41.8602C150.744 42.6712 152.222 43.6157 153.169 44.7006C154.122 45.7855 154.596 47.139 154.596 48.7523ZM167.006 41.2686H162.879V49.4475C162.879 51.5278 163.606 52.5653 165.064 52.5653C165.733 52.5653 166.287 52.5091 166.726 52.3915L166.83 55.2337C166.093 55.5093 165.121 55.648 163.919 55.648C162.44 55.648 161.285 55.1968 160.451 54.2945C159.62 53.3921 159.202 51.8806 159.202 49.753V41.2615H156.744V38.4527H159.202V35.3683L162.879 34.2588V38.4527H167.006V41.2686ZM185.587 46.744C185.587 49.3334 184.846 51.4593 183.368 53.1218C181.821 54.8334 179.763 55.6866 177.197 55.6866C174.721 55.6866 172.753 54.8668 171.285 53.2289C169.817 51.5875 169.083 49.5195 169.083 47.0249C169.083 44.4144 169.842 42.2762 171.353 40.6138C172.869 38.9495 174.909 38.1174 177.475 38.1174C179.947 38.1174 181.933 38.939 183.436 40.5787C184.873 42.1691 185.587 44.2231 185.587 46.744ZM181.707 46.83C181.707 45.2869 181.373 43.9633 180.704 42.8555C179.919 41.5178 178.795 40.849 177.34 40.849C175.84 40.849 174.69 41.5178 173.907 42.8555C173.236 43.9633 172.902 45.3098 172.902 46.9002C172.902 48.4451 173.236 49.7723 173.907 50.8765C174.716 52.2142 175.845 52.883 177.308 52.883C178.739 52.883 179.861 52.2001 180.672 50.8431C181.361 49.7091 181.707 48.3766 181.707 46.83ZM197.762 41.7513C197.372 41.6811 196.977 41.6464 196.582 41.6478C195.265 41.6478 194.246 42.1428 193.53 43.1399C192.908 44.0177 192.595 45.1272 192.595 46.4666V55.3056H188.852V43.7649C188.855 41.9965 188.819 40.2283 188.743 38.4615H192.004L192.141 41.6846H192.244C192.641 40.5769 193.263 39.6833 194.116 39.0145C194.897 38.43 195.846 38.1135 196.822 38.1122C197.168 38.1122 197.481 38.1367 197.758 38.1806L197.762 41.7513ZM214.505 46.0857C214.514 46.6547 214.468 47.2232 214.368 47.7833H203.137C203.179 49.4475 203.723 50.722 204.766 51.5997C205.713 52.3827 206.937 52.7759 208.44 52.7759C210.103 52.7759 211.62 52.5126 212.984 51.9807L213.571 54.5771C211.976 55.2723 210.094 55.6181 207.922 55.6181C205.309 55.6181 203.258 54.8492 201.765 53.3149C200.276 51.7788 199.53 49.7143 199.53 47.1285C199.53 44.59 200.223 42.4746 201.612 40.7876C203.066 38.9864 205.031 38.0858 207.504 38.0858C209.932 38.0858 211.771 38.9864 213.019 40.7876C214.008 42.2148 214.505 43.9843 214.505 46.0857ZM210.935 45.1149C210.961 44.0037 210.715 43.0469 210.208 42.2376C209.56 41.1948 208.563 40.6752 207.226 40.6752C206.002 40.6752 205.005 41.1825 204.246 42.2007C203.623 43.01 203.253 43.9826 203.138 45.1114L210.935 45.1149Z" fill="white"/>
<path d="M79.3894 23.6836C78.3481 23.6836 77.4473 23.6327 76.6975 23.5467V12.2517C77.7462 12.0898 78.8059 12.0099 79.867 12.013C84.1604 12.013 86.1376 14.1248 86.1376 17.5674C86.1376 21.5384 83.8022 23.6836 79.3894 23.6836ZM80.0181 13.4613C79.4386 13.4613 78.9452 13.4964 78.536 13.5806V22.1668C78.7573 22.202 79.1822 22.2178 79.7792 22.2178C82.5923 22.2178 84.1938 20.6167 84.1938 17.6183C84.1938 14.9447 82.7451 13.4613 80.0181 13.4613ZM92.2994 23.7696C89.8796 23.7696 88.3115 21.9632 88.3115 19.5108C88.3115 16.9547 89.913 15.1325 92.4363 15.1325C94.8209 15.1325 96.4241 16.8529 96.4241 19.3756C96.4241 21.9632 94.7718 23.7696 92.2994 23.7696ZM92.3696 16.4772C91.0403 16.4772 90.1887 17.7201 90.1887 19.4581C90.1887 21.1627 91.0579 22.4056 92.352 22.4056C93.6462 22.4056 94.5154 21.0767 94.5154 19.423C94.5154 17.7377 93.6637 16.4772 92.3696 16.4772ZM110.223 15.3028L107.633 23.5818H105.945L104.872 19.9865C104.605 19.1071 104.383 18.2147 104.207 17.3129H104.172C104.036 18.2152 103.78 19.1193 103.508 19.9865L102.366 23.5818H100.661L98.224 15.3028H100.115L101.053 19.2387C101.274 20.1761 101.46 21.0609 101.615 21.8965H101.65C101.785 21.1996 102.006 20.3288 102.331 19.2562L103.508 15.3046H105.007L106.133 19.1719C106.405 20.1094 106.626 21.0293 106.798 21.8983H106.848C106.967 21.0468 107.155 20.1427 107.41 19.1719L108.416 15.3046L110.223 15.3028ZM119.758 23.5818H117.917V18.8279C117.917 17.3638 117.355 16.63 116.247 16.63C115.157 16.63 114.407 17.5674 114.407 18.6576V23.5818H112.567V17.6692C112.567 16.9372 112.549 16.1525 112.498 15.301H114.117L114.203 16.5791H114.254C114.75 15.6943 115.754 15.1325 116.88 15.1325C118.618 15.1325 119.759 16.4614 119.759 18.6242L119.758 23.5818ZM124.832 23.5818H122.99V11.5039H124.832V23.5818ZM131.542 23.7696C129.124 23.7696 127.554 21.9632 127.554 19.5108C127.554 16.9547 129.156 15.1325 131.677 15.1325C134.063 15.1325 135.665 16.8529 135.665 19.3756C135.667 21.9632 134.013 23.7696 131.542 23.7696ZM131.61 16.4772C130.281 16.4772 129.429 17.7201 129.429 19.4581C129.429 21.1627 130.3 22.4056 131.591 22.4056C132.887 22.4056 133.754 21.0767 133.754 19.423C133.756 17.7377 132.906 16.4772 131.61 16.4772ZM142.921 23.5818L142.787 22.6285H142.738C142.176 23.3957 141.356 23.7696 140.317 23.7696C138.833 23.7696 137.779 22.7304 137.779 21.333C137.779 19.2896 139.551 18.2327 142.619 18.2327V18.08C142.619 16.9898 142.041 16.4439 140.899 16.4439C140.083 16.4439 139.367 16.6493 138.736 17.0583L138.362 15.8488C139.128 15.3713 140.083 15.1325 141.205 15.1325C143.368 15.1325 144.461 16.2736 144.461 18.5575V21.6068C144.461 22.4425 144.497 23.0902 144.58 23.5835L142.921 23.5818ZM142.668 19.4581C140.624 19.4581 139.598 19.9531 139.598 21.1276C139.598 21.9966 140.127 22.4214 140.861 22.4214C141.797 22.4214 142.668 21.7069 142.668 20.7361V19.4581ZM153.397 23.5818L153.311 22.2529H153.26C152.731 23.257 151.843 23.7696 150.601 23.7696C148.605 23.7696 147.126 22.0141 147.126 19.5441C147.126 16.9547 148.659 15.1308 150.752 15.1308C151.86 15.1308 152.645 15.5047 153.088 16.256H153.125V11.5039H154.967V21.3505C154.967 22.151 154.986 22.9006 155.035 23.5818H153.397ZM153.125 18.7102C153.125 17.5516 152.357 16.5633 151.186 16.5633C149.822 16.5633 148.988 17.7728 148.988 19.4756C148.988 21.1451 149.853 22.288 151.149 22.288C152.306 22.288 153.125 21.2821 153.125 20.0901V18.7102ZM166.646 23.7696C164.228 23.7696 162.66 21.9632 162.66 19.5108C162.66 16.9547 164.261 15.1325 166.783 15.1325C169.169 15.1325 170.77 16.8529 170.77 19.3756C170.772 21.9632 169.12 23.7696 166.646 23.7696ZM166.714 16.4772C165.387 16.4772 164.535 17.7201 164.535 19.4581C164.535 21.1627 165.404 22.4056 166.697 22.4056C167.992 22.4056 168.86 21.0767 168.86 19.423C168.863 17.7377 168.012 16.4772 166.714 16.4772ZM180.667 23.5818H178.825V18.8279C178.825 17.3638 178.263 16.63 177.155 16.63C176.065 16.63 175.317 17.5674 175.317 18.6576V23.5818H173.475V17.6692C173.475 16.9372 173.457 16.1525 173.406 15.301H175.025L175.111 16.5791H175.162C175.656 15.6943 176.662 15.1308 177.786 15.1308C179.524 15.1308 180.667 16.4597 180.667 18.6225V23.5818ZM193.048 16.6826H191.024V20.7027C191.024 21.7262 191.379 22.2371 192.095 22.2371C192.42 22.2371 192.692 22.202 192.912 22.151L192.962 23.5484C192.606 23.6854 192.128 23.7538 191.535 23.7538C190.084 23.7538 189.217 22.9533 189.217 20.8572V16.6826H188.009V15.3028H189.217V13.786L191.024 13.2401V15.301H193.048V16.6826ZM202.791 23.5818H200.952V18.863C200.952 17.3813 200.392 16.6317 199.282 16.6317C198.329 16.6317 197.44 17.2795 197.44 18.5909V23.5818H195.602V11.5039H197.44V16.4772H197.477C198.057 15.5749 198.896 15.1308 199.967 15.1308C201.719 15.1308 202.791 16.493 202.791 18.6576V23.5818ZM212.772 19.8847H207.249C207.284 21.4523 208.322 22.3371 209.858 22.3371C210.675 22.3371 211.427 22.2002 212.09 21.9457L212.376 23.2237C211.593 23.5642 210.671 23.7345 209.599 23.7345C207.008 23.7345 205.476 22.0984 205.476 19.5617C205.476 17.0232 207.045 15.115 209.391 15.115C211.507 15.115 212.835 16.6826 212.835 19.0508C212.847 19.3303 212.825 19.6102 212.772 19.8847ZM211.084 18.5733C211.084 17.2953 210.44 16.393 209.263 16.393C208.206 16.393 207.37 17.3129 207.251 18.5733H211.084Z" fill="white"/>
<defs>
<linearGradient id="paint0_linear_1008_1200" x1="173.769" y1="70.3875" x2="173.769" y2="-182.792" gradientUnits="userSpaceOnUse">
<stop stop-color="#1A1A1A" stop-opacity="0.1"/>
<stop offset="0.123" stop-color="#212121" stop-opacity="0.151"/>
<stop offset="0.308" stop-color="#353535" stop-opacity="0.227"/>
<stop offset="0.532" stop-color="#575757" stop-opacity="0.318"/>
<stop offset="0.783" stop-color="#858585" stop-opacity="0.421"/>
<stop offset="1" stop-color="#B3B3B3" stop-opacity="0.51"/>
</linearGradient>
</defs>
</svg>
