<svg width="48" height="49" viewBox="0 0 48 49" fill="none" xmlns="http://www.w3.org/2000/svg">
<path d="M44.1021 24.8334C44.1021 23.0809 43.962 21.802 43.6587 20.4757H23.9421V28.3859H35.5153C35.2821 30.3516 34.0221 33.3121 31.222 35.3013L31.1828 35.5662L37.4168 40.4681L37.8487 40.5118C41.8153 36.7935 44.1021 31.3226 44.1021 24.8334" fill="#05A6F0"/>
<path d="M23.9408 45.675C29.6107 45.675 34.3706 43.7802 37.8474 40.512L31.2207 35.3015C29.4474 36.5567 27.0673 37.433 23.9408 37.433C18.3875 37.433 13.6742 33.7148 11.9941 28.5754L11.7478 28.5967L5.26556 33.6886L5.18079 33.9278C8.63407 40.8908 15.7274 45.675 23.9408 45.675Z" fill="#34A853"/>
<path d="M11.9953 28.5756C11.552 27.2493 11.2954 25.8282 11.2954 24.3599C11.2954 22.8915 11.552 21.4705 11.972 20.1443L11.9602 19.8618L5.39674 14.6881L5.18199 14.7918C3.75872 17.6812 2.94205 20.9259 2.94205 24.3599C2.94205 27.794 3.75872 31.0385 5.18199 33.9279L11.9953 28.5756" fill="#FBBC05"/>
<path d="M23.9409 11.2868C27.8841 11.2868 30.5441 13.0157 32.0608 14.4604L37.9875 8.58694C34.3476 5.15287 29.6108 3.04504 23.9409 3.04504C15.7275 3.04504 8.63409 7.82904 5.18079 14.7919L11.9708 20.1444C13.6743 15.0051 18.3876 11.2868 23.9409 11.2868" fill="#EB4335"/>
</svg>
