<svg width="237" height="71" viewBox="0 0 237 71" fill="none" xmlns="http://www.w3.org/2000/svg">
<path d="M228.153 70.2011H8.77513C3.86106 70.2011 0 66.34 0 61.4259V8.77513C0 3.86106 3.86106 0 8.77513 0H228.153C233.068 0 236.929 3.86106 236.929 8.77513V61.4259C236.929 66.34 233.068 70.2011 228.153 70.2011Z" fill="black"/>
<path d="M228.153 1.40402C232.19 1.40402 235.525 4.73857 235.525 8.77513V61.4259C235.525 65.4625 232.19 68.797 228.153 68.797H8.77513C4.73857 68.797 1.40402 65.4625 1.40402 61.4259V8.77513C1.40402 4.73857 4.73857 1.40402 8.77513 1.40402H228.153ZM228.153 0H8.77513C3.86106 0 0 4.03656 0 8.77513V61.4259C0 66.34 3.86106 70.2011 8.77513 70.2011H228.153C233.068 70.2011 236.929 66.34 236.929 61.4259V8.77513C236.929 4.03656 233.068 0 228.153 0Z" fill="#A6A6A6"/>
<path d="M83.1884 17.9013C83.1884 19.3053 82.8374 20.5338 81.9598 21.4114C80.9068 22.4644 79.6783 22.9909 78.0988 22.9909C76.5193 22.9909 75.2907 22.4644 74.2377 21.4114C73.1847 20.3583 72.6582 19.1298 72.6582 17.5503C72.6582 15.9708 73.1847 14.7422 74.2377 13.6892C75.2907 12.6362 76.5193 12.1097 78.0988 12.1097C78.8008 12.1097 79.5028 12.2852 80.2048 12.6362C80.9068 12.9872 81.4333 13.3382 81.7843 13.8647L80.9068 14.7422C80.2048 13.8647 79.3273 13.5137 78.0988 13.5137C77.0458 13.5137 75.9928 13.8647 75.2907 14.7422C74.4132 15.4443 74.0622 16.4973 74.0622 17.7258C74.0622 18.9543 74.4132 20.0073 75.2907 20.7093C76.1683 21.4114 77.0458 21.9379 78.0988 21.9379C79.3273 21.9379 80.2048 21.5869 81.0823 20.7093C81.6088 20.1828 81.9598 19.4808 81.9598 18.6033H78.0988V17.1993H83.1884V17.9013ZM91.2615 13.5137H86.5229V16.8483H90.9105V18.0768H86.5229V21.4114H91.2615V22.8154H85.1189V12.2852H91.2615V13.5137ZM97.0531 22.8154H95.649V13.5137H92.6655V12.2852H100.037V13.5137H97.0531V22.8154ZM105.126 22.8154V12.2852H106.53V22.8154H105.126ZM112.497 22.8154H111.093V13.5137H108.11V12.2852H115.305V13.5137H112.322V22.8154H112.497ZM129.17 21.4114C128.117 22.4644 126.889 22.9909 125.309 22.9909C123.729 22.9909 122.501 22.4644 121.448 21.4114C120.395 20.3583 119.868 19.1298 119.868 17.5503C119.868 15.9708 120.395 14.7422 121.448 13.6892C122.501 12.6362 123.729 12.1097 125.309 12.1097C126.889 12.1097 128.117 12.6362 129.17 13.6892C130.223 14.7422 130.75 15.9708 130.75 17.5503C130.75 19.1298 130.223 20.3583 129.17 21.4114ZM122.501 20.5338C123.203 21.2358 124.256 21.7624 125.309 21.7624C126.362 21.7624 127.415 21.4114 128.117 20.5338C128.819 19.8318 129.346 18.7788 129.346 17.5503C129.346 16.3218 128.995 15.2688 128.117 14.5667C127.415 13.8647 126.362 13.3382 125.309 13.3382C124.256 13.3382 123.203 13.6892 122.501 14.5667C121.799 15.2688 121.272 16.3218 121.272 17.5503C121.272 18.7788 121.623 19.8318 122.501 20.5338ZM132.68 22.8154V12.2852H134.26L139.349 20.5338V12.2852H140.753V22.8154H139.349L133.909 14.2157V22.8154H132.68Z" fill="white" stroke="white" stroke-width="1.18519" stroke-miterlimit="10"/>
<path d="M119.517 38.2596C115.305 38.2596 111.971 41.4187 111.971 45.8062C111.971 50.0183 115.305 53.3528 119.517 53.3528C123.729 53.3528 127.064 50.1938 127.064 45.8062C127.064 41.2432 123.729 38.2596 119.517 38.2596ZM119.517 50.1938C117.236 50.1938 115.305 48.2633 115.305 45.6307C115.305 42.9982 117.236 41.0677 119.517 41.0677C121.799 41.0677 123.729 42.8227 123.729 45.6307C123.729 48.2633 121.799 50.1938 119.517 50.1938ZM103.196 38.2596C98.9835 38.2596 95.649 41.4187 95.649 45.8062C95.649 50.0183 98.9835 53.3528 103.196 53.3528C107.408 53.3528 110.742 50.1938 110.742 45.8062C110.742 41.2432 107.408 38.2596 103.196 38.2596ZM103.196 50.1938C100.914 50.1938 98.9835 48.2633 98.9835 45.6307C98.9835 42.9982 100.914 41.0677 103.196 41.0677C105.477 41.0677 107.408 42.8227 107.408 45.6307C107.408 48.2633 105.477 50.1938 103.196 50.1938ZM83.7148 40.5411V43.7002H91.2614C91.0859 45.4552 90.3839 46.8592 89.5064 47.7368C88.4533 48.7898 86.6983 50.0183 83.7148 50.0183C78.9762 50.0183 75.4661 46.3327 75.4661 41.5942C75.4661 36.8556 79.1517 33.17 83.7148 33.17C86.1718 33.17 88.1023 34.2231 89.5064 35.4516L91.7879 33.17C89.8574 31.415 87.4003 30.011 83.8903 30.011C77.5722 30.011 72.1316 35.2761 72.1316 41.5942C72.1316 47.9123 77.5722 53.1773 83.8903 53.1773C87.4003 53.1773 89.8574 52.1243 91.9634 49.8428C94.0694 47.7368 94.7714 44.7532 94.7714 42.4717C94.7714 41.7697 94.7714 41.0677 94.5959 40.5411H83.7148ZM163.393 42.9982C162.691 41.2432 160.936 38.2596 157.075 38.2596C153.214 38.2596 150.055 41.2432 150.055 45.8062C150.055 50.0183 153.214 53.3528 157.426 53.3528C160.76 53.3528 162.866 51.2468 163.568 50.0183L161.111 48.2633C160.234 49.4918 159.181 50.3693 157.426 50.3693C155.671 50.3693 154.618 49.6673 153.74 48.0878L163.744 43.8757L163.393 42.9982ZM153.214 45.4552C153.214 42.6472 155.495 41.0677 157.075 41.0677C158.303 41.0677 159.532 41.7697 159.883 42.6472L153.214 45.4552ZM144.965 52.6508H148.3V30.713H144.965V52.6508ZM139.7 39.8391C138.823 38.9616 137.419 38.0841 135.664 38.0841C131.978 38.0841 128.468 41.4187 128.468 45.6307C128.468 49.8428 131.803 53.0018 135.664 53.0018C137.419 53.0018 138.823 52.1243 139.525 51.2468H139.7V52.2998C139.7 55.1079 138.121 56.6874 135.664 56.6874C133.733 56.6874 132.329 55.2834 131.978 54.0548L129.17 55.2834C130.047 57.2139 132.154 59.6709 135.839 59.6709C139.7 59.6709 142.859 57.3894 142.859 51.9488V38.6106H139.7V39.8391ZM135.839 50.1938C133.558 50.1938 131.627 48.2633 131.627 45.6307C131.627 42.9982 133.558 41.0677 135.839 41.0677C138.121 41.0677 139.876 42.9982 139.876 45.6307C139.876 48.2633 138.121 50.1938 135.839 50.1938ZM178.662 30.713H170.764V52.6508H174.099V44.4022H178.662C182.347 44.4022 185.857 41.7697 185.857 37.5576C185.857 33.3455 182.347 30.713 178.662 30.713ZM178.837 41.2432H174.099V33.6965H178.837C181.294 33.6965 182.698 35.8026 182.698 37.3821C182.523 39.3126 181.119 41.2432 178.837 41.2432ZM199.02 38.0841C196.563 38.0841 194.106 39.1371 193.228 41.4187L196.212 42.6472C196.914 41.4187 197.967 41.0677 199.196 41.0677C200.951 41.0677 202.53 42.1207 202.706 43.8757V44.0512C202.179 43.7002 200.775 43.1737 199.371 43.1737C196.212 43.1737 193.053 44.9287 193.053 48.0878C193.053 51.0713 195.685 53.0018 198.494 53.0018C200.775 53.0018 201.828 51.9488 202.706 50.8958H202.881V52.6508H206.04V44.2267C205.689 40.3656 202.706 38.0841 199.02 38.0841ZM198.669 50.1938C197.616 50.1938 196.036 49.6673 196.036 48.2633C196.036 46.5082 197.967 45.9817 199.547 45.9817C200.951 45.9817 201.653 46.3327 202.53 46.6837C202.179 48.7898 200.424 50.1938 198.669 50.1938ZM217.097 38.6106L213.411 48.0878H213.236L209.375 38.6106H205.865L211.656 51.9488L208.322 59.3199H211.656L220.607 38.6106H217.097ZM187.612 52.6508H190.947V30.713H187.612V52.6508Z" fill="white"/>
<path d="M18.2523 13.1627C17.7258 13.6892 17.5503 14.5667 17.5503 15.6198V54.4059C17.5503 55.4589 17.9013 56.3364 18.4278 56.8629L18.6033 57.0384L40.3656 35.2761V34.9251L18.2523 13.1627Z" fill="url(#paint0_linear_1008_1198)"/>
<path d="M47.3858 42.6472L40.1902 35.4516V34.9251L47.3858 27.7294L47.5613 27.9049L56.1609 32.819C58.618 34.223 58.618 36.5046 56.1609 37.9086L47.3858 42.6472Z" fill="url(#paint1_linear_1008_1198)"/>
<path d="M47.5613 42.4717L40.1902 35.1006L18.2523 57.0384C19.1298 57.9159 20.3584 57.9159 21.9379 57.2139L47.5613 42.4717Z" fill="url(#paint2_linear_1008_1198)"/>
<path d="M47.5613 27.7294L21.9379 13.1627C20.3584 12.2852 19.1298 12.4607 18.2523 13.3382L40.1902 35.1006L47.5613 27.7294Z" fill="url(#paint3_linear_1008_1198)"/>
<path opacity="0.2" d="M47.3858 42.2962L21.9379 56.6874C20.5339 57.5649 19.3053 57.3894 18.4278 56.6874L18.2523 56.8629L18.4278 57.0384C19.3053 57.7404 20.5339 57.9159 21.9379 57.0384L47.3858 42.2962Z" fill="black"/>
<path opacity="0.12" d="M18.2523 56.6874C17.7258 56.1609 17.5503 55.2834 17.5503 54.2303V54.4059C17.5503 55.4589 17.9013 56.3364 18.4278 56.8629V56.6874H18.2523ZM56.1609 37.3821L47.3857 42.2962L47.5612 42.4717L56.1609 37.5576C57.3894 36.8556 57.9159 35.9781 57.9159 35.1006C57.9159 35.9781 57.2139 36.6801 56.1609 37.3821Z" fill="black"/>
<path opacity="0.25" d="M21.9379 13.3382L56.1609 32.819C57.2139 33.521 57.9159 34.223 57.9159 35.1006C57.9159 34.223 57.3894 33.3455 56.1609 32.6435L21.9379 13.1627C19.4808 11.7587 17.5503 12.8117 17.5503 15.6198V15.7953C17.5503 13.1627 19.4808 11.9342 21.9379 13.3382Z" fill="white"/>
<defs>
<linearGradient id="paint0_linear_1008_1198" x1="38.2596" y1="15.2863" x2="8.80499" y2="44.7392" gradientUnits="userSpaceOnUse">
<stop stop-color="#00A0FF"/>
<stop offset="0.007" stop-color="#00A1FF"/>
<stop offset="0.26" stop-color="#00BEFF"/>
<stop offset="0.512" stop-color="#00D2FF"/>
<stop offset="0.76" stop-color="#00DFFF"/>
<stop offset="1" stop-color="#00E3FF"/>
</linearGradient>
<linearGradient id="paint1_linear_1008_1198" x1="59.3796" y1="35.1023" x2="16.9133" y2="35.1023" gradientUnits="userSpaceOnUse">
<stop stop-color="#FFE000"/>
<stop offset="0.409" stop-color="#FFBD00"/>
<stop offset="0.775" stop-color="#FFA500"/>
<stop offset="1" stop-color="#FF9C00"/>
</linearGradient>
<linearGradient id="paint2_linear_1008_1198" x1="43.5721" y1="39.1301" x2="3.63119" y2="79.071" gradientUnits="userSpaceOnUse">
<stop stop-color="#FF3A44"/>
<stop offset="1" stop-color="#C31162"/>
</linearGradient>
<linearGradient id="paint3_linear_1008_1198" x1="12.8065" y1="0.308913" x2="30.6428" y2="18.1452" gradientUnits="userSpaceOnUse">
<stop stop-color="#32A071"/>
<stop offset="0.069" stop-color="#2DA771"/>
<stop offset="0.476" stop-color="#15CF74"/>
<stop offset="0.801" stop-color="#06E775"/>
<stop offset="1" stop-color="#00F076"/>
</linearGradient>
</defs>
</svg>
