<svg width="434" height="332" viewBox="0 0 434 332" fill="none" xmlns="http://www.w3.org/2000/svg">
<path d="M27.5151 197.231L18.4724 167.533C17.3197 163.747 19.3007 159.853 22.9297 158.773L42.607 152.913C46.236 151.832 50.0614 153.996 51.2142 157.782L60.2568 187.48L27.5151 197.231Z" fill="#E30512"/>
<path d="M64.9417 202.614L32.0768 212.415L33.821 218.151L66.6859 208.35L64.9417 202.614Z" fill="#E30512"/>
<path d="M60.8784 189.255L28.0231 199.046L31.5104 210.506L64.3658 200.715L60.8784 189.255Z" fill="#E30512"/>
<path d="M14.2606 186.587C10.2331 187.787 8.06016 192.195 9.31391 196.314C10.5677 200.434 14.9193 202.897 18.8662 201.721L23.4974 216.938C24.1371 219.04 26.2598 220.241 28.2736 219.641L29.1435 222.5L32.7683 221.42L31.8984 218.561L31.0284 215.703L23.8385 192.078C22.5592 187.874 18.2076 185.411 14.2606 186.587Z" fill="#E30512"/>
<path d="M65.3912 171.308C61.3637 172.508 59.1908 176.915 60.4445 181.035L67.6855 204.828L68.5555 207.686L69.4254 210.545L73.0502 209.465L72.1802 206.606C74.194 206.006 75.2932 203.845 74.6536 201.743L70.0224 186.525C74.0499 185.325 76.2228 180.918 74.9691 176.799C73.7154 172.679 69.4187 170.108 65.3912 171.308Z" fill="#E30512"/>
<path d="M322.48 79.3744C322.428 79.2829 322.377 79.1907 322.327 79.097C320.895 76.4065 320.573 73.2647 321.421 70.251L335.357 20.7289C335.673 19.6083 336.257 18.6371 337.013 17.8693L335.049 17.3283C333.428 16.882 331.727 17.8978 331.249 19.5973L317.313 69.1192C316.072 73.528 318.376 78.0366 322.48 79.3744Z" fill="#E30512"/>
<path d="M375.008 40.0693C371.293 39.0492 367.965 41.7514 366.411 47.2566C364.846 52.7994 366.226 56.9974 369.941 58.0175C373.656 59.0375 377.037 56.1468 378.602 50.604C380.156 45.0988 378.723 41.0893 375.008 40.0693Z" fill="#E30512"/>
<path d="M389.806 61.7911C391.361 62.5525 392.825 63.4888 394.186 64.5934C396.947 65.022 398.807 64.0844 399.494 61.6506C400.219 59.0843 398.682 57.3611 395.144 56.3897L391.606 55.4182L389.806 61.7911Z" fill="#E30512"/>
<path d="M401.176 50.8008C401.815 48.5364 400.529 47.1667 397.46 46.3242L394.391 45.4816L392.462 52.3125L395.459 53.1352C398.744 54.0372 400.526 53.1029 401.176 50.8008Z" fill="#E30512"/>
<path d="M329.972 81.6103L354.729 88.4073C354.718 88.3145 354.705 88.2221 354.695 88.1287C354.347 84.965 354.585 81.7827 355.4 78.6612L335.892 73.3052C335.077 73.0814 334.611 72.2092 334.852 71.3573C335.092 70.5052 335.948 69.996 336.763 70.2198L356.394 75.6096C357.223 73.5009 358.312 71.5214 359.649 69.698L338.546 63.904C337.731 63.6803 337.265 62.8082 337.506 61.9561C337.746 61.1041 338.602 60.5949 339.417 60.8186L361.924 66.9982C363.5 65.367 365.273 63.9595 367.224 62.7983C367.804 62.4532 368.394 62.1349 368.992 61.8407C368.959 61.832 368.927 61.824 368.894 61.8149C362.754 60.1292 359.878 54.0508 362.137 46.0471C364.386 38.0808 369.98 34.5317 376.12 36.2175C382.296 37.9131 385.225 43.8025 382.976 51.7686C382.051 55.0454 380.558 57.6067 378.694 59.3733C381.053 59.2849 383.4 59.5552 385.699 60.1851L391.161 40.8353L398.71 42.9077C403.586 44.2465 406.724 46.776 405.445 51.3065C404.784 53.6473 402.844 55.5556 399.886 55.557L399.844 55.708C403.068 57.2442 404.402 59.6853 403.465 63.0076C402.591 66.1009 400.498 67.7455 397.78 68.194C398.677 69.3253 399.476 70.5434 400.171 71.8441C401.556 74.4381 402.464 77.2372 402.878 80.1745C402.914 80.4336 402.949 80.6935 402.977 80.9546C403.345 84.2928 403.061 87.6517 402.133 90.9381C401.205 94.2244 399.688 97.2448 397.625 99.9155C397.583 99.9692 397.54 100.022 397.498 100.075C401.515 100.62 405.482 97.9884 406.665 93.8013L420.683 44.1462C421.164 42.4421 420.232 40.698 418.602 40.2504L411.518 38.3055L342.265 19.2916C340.635 18.844 338.924 19.8625 338.442 21.5666L324.424 71.2217C323.142 75.7658 325.626 80.4168 329.972 81.6103ZM344.449 48.1878C344.877 50.2579 345.953 51.4077 347.398 51.8043C349.601 52.4092 351.072 51.4707 352.063 47.9596L356.742 31.3853L360.932 32.5356L356.146 49.4873C354.878 53.9801 351.738 57.1048 346.791 55.7464C343.504 54.844 341.634 52.7846 340.931 49.6221L344.449 48.1878Z" fill="#E30512"/>
<path d="M390.632 106.236C389.133 107.128 387.569 107.849 385.956 108.399L393.045 121.673C393.71 122.918 394.808 123.751 396.044 124.09C397.281 124.43 398.656 124.276 399.879 123.549C402.322 122.094 403.225 118.896 401.895 116.406L394.805 103.132C393.525 104.305 392.131 105.343 390.632 106.236Z" fill="#E30512"/>
<path d="M362.946 70.5545C361.528 72.2784 360.342 74.2393 359.456 76.397C359.121 77.2126 358.828 78.0556 358.583 78.9256C358.534 79.0974 358.488 79.2693 358.444 79.4411C357.584 82.7748 357.502 86.12 358.086 89.2661C358.197 89.8649 358.333 90.456 358.492 91.0386C358.66 91.6557 358.853 92.2632 359.073 92.8592C361.336 99.009 366.287 103.941 372.915 105.761C376.778 106.821 380.708 106.686 384.336 105.575C386.933 104.78 389.374 103.484 391.527 101.769C392.027 101.371 392.511 100.949 392.978 100.507C393.048 100.441 393.117 100.376 393.186 100.309C393.554 99.9514 393.91 99.5799 394.255 99.1958C394.965 98.404 395.624 97.5563 396.225 96.6574C397.536 94.6966 398.57 92.4923 399.249 90.0897C401.6 81.7598 399.05 73.2918 393.359 67.9743C391.03 65.7988 388.177 64.1497 384.916 63.2546C384.912 63.2534 384.908 63.2525 384.903 63.2513C377.923 61.3396 370.728 63.33 365.487 67.9299C364.577 68.7283 363.726 69.6056 362.946 70.5545Z" fill="#E30512"/>
<path d="M289.16 58.2608V110.74H223.83V58.2608H220.521L228.384 35.696H283.429L293.258 58.2608H289.16ZM261.013 92.6389V86.7536C261.013 84.9632 259.398 83.4579 257.209 83.0207V92.6389H261.013ZM255.046 92.6389V82.9464C252.626 83.2525 250.781 84.84 250.781 86.7536V92.6389H255.046ZM286.79 58.7763H226.199V108.501H248.589V85.5918C248.589 82.5451 251.861 80.0754 255.897 80.0754C259.933 80.0754 263.205 82.5451 263.205 85.5918V108.501H286.79V58.7763ZM282.414 61.5841V74.3408V79.9899H269.438V74.3408V72.8665V61.5841H282.414ZM276.805 78.4593H281.043V74.4052H276.805V78.4593ZM276.805 72.8665H281.043V68.88H276.805V72.8665ZM276.805 67.1769H281.043V63.1228H276.805V67.1769ZM270.786 78.4593H275.024V74.4052H270.786V78.4593ZM270.786 72.8665H275.024V68.88H270.786V72.8665ZM270.786 67.1769H275.024V63.1228H270.786V67.1769ZM282.414 98.3681V104.017H269.438V98.3681V96.8938V85.6114H282.414V98.3681ZM275.024 87.1501H270.786V91.2042H275.024V87.1501ZM275.024 92.9073H270.786V96.8938H275.024V92.9073ZM275.024 98.4325H270.786V102.487H275.024V98.4325ZM281.043 87.1501H276.805V91.2042H281.043V87.1501ZM281.043 92.9073H276.805V96.8938H281.043V92.9073ZM281.043 98.4325H276.805V102.487H281.043V98.4325ZM249.416 74.3408V72.8665V61.5841H262.392V74.3408V74.3487H249.416V74.3408ZM256.783 72.8665H261.021V68.88H256.783V72.8665ZM256.783 67.1769H261.021V63.1228H256.783V67.1769ZM250.764 72.8665H255.002V68.88H250.764V72.8665ZM250.764 67.1769H255.002V63.1228H250.764V67.1769ZM230.121 98.3681V96.8938V85.6114H243.097V98.3681V104.017H230.121V98.3681ZM237.488 102.487H241.726V98.4325H237.488V102.487ZM237.488 96.8938H241.726V92.9073H237.488V96.8938ZM237.488 91.2042H241.726V87.1501H237.488V91.2042ZM231.469 102.487H235.707V98.4325H231.469V102.487ZM231.469 96.8938H235.707V92.9073H231.469V96.8938ZM231.469 91.2042H235.707V87.1501H231.469V91.2042ZM230.121 74.3408V72.8665V61.5841H243.097V74.3408V79.9899H230.121V74.3408ZM237.488 78.4593H241.726V74.4052H237.488V78.4593ZM237.488 72.8665H241.726V68.88H237.488V72.8665ZM237.488 67.1769H241.726V63.1228H237.488V67.1769ZM231.469 78.4593H235.707V74.4052H231.469V78.4593ZM231.469 72.8665H235.707V68.88H231.469V72.8665ZM231.469 67.1769H235.707V63.1228H231.469V67.1769Z" fill="#E30512"/>
<path d="M148.495 232.177L153.679 238.189C155.636 240.458 156.614 241.592 157.779 242.19C158.806 242.718 159.931 242.951 161.028 242.863C162.272 242.765 163.458 242.078 165.83 240.706L172.816 236.663C175.188 235.29 176.374 234.604 177.073 233.578C177.69 232.673 178.039 231.587 178.083 230.44C178.132 229.139 177.618 227.736 176.592 224.928L173.872 217.49M132.215 204.475L129.495 197.037C128.469 194.229 127.955 192.826 128.004 191.525C128.048 190.378 128.397 189.292 129.014 188.387C129.713 187.361 130.899 186.675 133.271 185.302L140.257 181.259C142.629 179.886 143.815 179.2 145.059 179.101C146.156 179.014 147.281 179.247 148.308 179.775C149.473 180.373 150.451 181.507 152.408 183.776L157.592 189.788M148.16 202.672L153.044 210.982L159.292 212.935M170.808 200.702C177.101 211.411 174.25 224.696 164.439 230.374C154.628 236.052 141.573 231.973 135.28 221.263C128.986 210.554 131.837 197.269 141.648 191.591C151.459 185.913 164.514 189.992 170.808 200.702Z" stroke="#E30512" stroke-width="6" stroke-linecap="round" stroke-linejoin="round"/>
<g clip-path="url(#clip0_1008_1218)">
<path fill-rule="evenodd" clip-rule="evenodd" d="M175.281 45.0526C177.042 51.6306 176.309 57.8364 173.072 63.652C169.83 69.4758 165.031 73.2254 158.676 74.9006C152.346 76.5691 146.307 75.6836 140.572 72.219C134.847 68.7661 131.088 63.744 129.327 57.166C127.572 50.6079 128.324 44.4252 131.569 38.5864C134.831 32.7575 139.619 28.9964 145.943 27.3296C152.298 25.6543 158.341 26.5531 164.069 30.0194C169.787 33.4956 173.526 38.4945 175.281 45.0526ZM122.254 54.3383C123.89 52.3806 124.404 50.2505 123.09 46.0323L120.156 35.0712C119.726 33.5445 116.992 34.0665 117.317 35.8194L119.595 44.7386C120.034 46.4047 117.633 47.0944 117.18 45.3753L114.821 36.151C114.348 34.5149 111.741 35.0247 112.194 36.8434C112.877 39.3963 113.87 43.5147 114.553 46.0676C115.113 47.6452 112.927 48.4485 112.497 46.6097L110.153 37.4452C109.764 36.2203 108.325 36.124 107.584 36.9439C106.799 37.8255 107.33 39.0413 107.577 40.1191L110.052 50.6972C110.92 53.734 112.359 56.0096 114.947 56.456C115.342 56.5223 115.863 56.5199 116.45 56.4575L122.503 82.2494C122.864 83.7798 124.394 84.704 125.797 84.3341L126.118 84.2497C127.7 83.8326 128.665 82.0805 128.164 80.3881L120.708 55.3278C121.413 55.0143 121.974 54.6748 122.254 54.3383ZM186.938 64.4407L180.75 41.4743C171.72 38.8711 169.398 20.2806 177.215 18.3266C186.714 15.9433 193.215 35.7465 185.663 40.101L192.46 63.0846C193.747 67.4307 188.249 69.3128 186.938 64.4407ZM165.679 47.5625C166.705 51.3952 166.279 55.0071 164.385 58.4099C162.494 61.7977 159.699 63.9897 155.996 64.9658C152.319 65.9351 148.797 65.4083 145.46 63.3985C142.121 61.3754 139.939 58.4508 138.913 54.6181C137.894 50.8119 138.326 47.1983 140.217 43.8104C142.115 40.4209 144.903 38.2307 148.58 37.2613C156.02 35.3073 163.616 39.8572 165.679 47.5625ZM168.812 46.7367C167.552 42.0286 164.872 38.4258 160.757 35.9398C156.642 33.4538 152.297 32.8245 147.716 34.032C143.148 35.2361 139.703 37.9189 137.393 42.0987C135.063 46.2836 134.52 50.7358 135.78 55.4439C137.044 60.1652 139.742 63.763 143.861 66.2622C147.958 68.7599 152.296 69.4124 156.864 68.2083C161.438 67.0026 164.891 64.2965 167.225 60.1033C169.543 55.9002 170.074 51.4513 168.812 46.7367Z" fill="#E30512"/>
</g>
<g clip-path="url(#clip1_1008_1218)">
<path fill-rule="evenodd" clip-rule="evenodd" d="M88.0004 60.3117C87.2903 58.5365 86.1052 57.5958 84.3161 57.9181C84.1598 56.1808 83.4384 54.5404 82.2643 53.2525C81.7256 52.7052 81.1057 52.2456 80.4273 51.8906C77.9694 50.6033 75.5745 50.8831 72.873 50.9651C70.1714 51.0471 67.6804 51.1527 65.1078 51.3755C61.9993 51.6352 58.9176 52.0233 55.8668 52.559C54.454 52.8103 54.807 52.8179 53.5132 52.1809L53.475 52.1887L64.1306 36.3305C65.4739 34.165 66.8069 33.7226 69.1046 33.2954L70.3313 33.0423C70.8542 32.7639 71.3064 32.3685 71.6535 31.8862C72.0005 31.4038 72.2334 30.8472 72.3342 30.2587L72.43 29.0069C72.4994 28.1355 72.5298 27.7743 71.785 27.1312C70.6102 26.0812 68.8374 26.3868 67.4202 26.5854C64.5607 27.0214 62.4603 28.2315 60.8728 31.4785L49.4917 50.2988C44.348 48.1195 39.0444 46.3524 33.6304 45.0141C32.1669 44.6513 30.6614 44.4976 29.1583 44.5575C29.2692 45.3233 29.3203 46.0964 29.3111 46.8695C31.396 46.7875 32.572 47.0203 35.6195 47.9248C39.0198 48.9307 42.1881 50.1586 45.5666 51.5037C46.2883 51.7833 47.0126 52.0758 47.6916 52.4045L48.4729 56.1336L30.6754 59.8058L34.8899 68.3373L35.1916 68.891L35.5056 69.0606C36.0276 69.3681 36.6144 69.6688 37.3255 70.0243C37.4749 70.0795 37.621 70.1432 37.7633 70.2152C41.5369 71.9061 44.5743 74.929 46.3005 78.7118L46.4156 78.976L58.1492 76.555C53.2956 65.6377 59.6434 59.5069 66.4964 58.7625C75.3184 57.8261 79.0611 64.3591 79.1938 72.3669L86.6815 70.8219C88.8028 70.4713 89.4658 68.54 89.1045 65.5812L88.0004 60.3117ZM25.5021 91.9557C26.6268 92.8626 27.9204 93.5318 29.3049 93.9228C30.6894 94.3138 32.1362 94.4185 33.558 94.2307C24.6621 87.4084 34.4891 77.8813 40.598 88.3655C42.7165 83.0002 40.0901 78.2188 35.1513 75.8832C32.8254 74.7829 31.5924 74.1199 30.7275 73.2203C30.2404 72.696 29.8305 72.104 29.5105 71.4627L22.826 57.8832C20.2456 52.8781 26.4112 46.2894 19.9598 40.6902C18.8354 39.782 17.5418 39.1116 16.1571 38.7194C14.7723 38.3273 13.325 38.2216 11.9025 38.4088C20.8021 45.2169 10.9688 54.7453 4.86118 44.2675C2.74274 49.6328 5.36912 54.4142 10.3079 56.7498C12.5093 57.762 14.556 58.0361 16.2448 61.4441L22.5956 74.5701C22.9787 75.2999 23.2421 76.0868 23.3755 76.9001C23.4572 77.6801 23.4324 78.467 23.3019 79.2388C22.6776 84.1083 21.196 88.1771 25.4994 91.9429L25.5021 91.9557ZM65.8582 66.4137L66.5131 69.5395L63.4176 70.1782C63.444 69.3836 63.6853 68.613 64.1155 67.9495C64.5456 67.286 65.1482 66.755 65.8582 66.4137ZM63.8385 72.1872L66.934 71.5485L67.5889 74.6743C66.8007 74.6421 66.0347 74.3934 65.3738 73.9551C64.7128 73.5168 64.1819 72.9054 63.8385 72.1872ZM69.5784 74.2638L68.9235 71.138L72.0444 70.494C72.018 71.2886 71.7767 72.0592 71.3465 72.7227C70.9164 73.3862 70.3138 73.9173 69.6038 74.2585L69.5784 74.2638ZM71.5981 68.4903L68.5026 69.129L67.8477 66.0032C68.6357 66.0361 69.4014 66.285 70.0622 66.7233C70.7231 67.1616 71.2541 67.7725 71.5981 68.4903ZM65.8876 61.6803C64.1899 62.0359 62.6382 62.8917 61.4287 64.1395C60.2192 65.3873 59.4061 66.9712 59.0921 68.691C58.7781 70.4108 58.9774 72.1895 59.6648 73.8021C60.3521 75.4148 61.4966 76.7892 62.9538 77.7517C64.411 78.7142 66.1154 79.2215 67.8516 79.2096C69.5879 79.1978 71.2782 78.6672 72.7089 77.685C74.1396 76.7028 75.2466 75.313 75.8899 73.6913C76.5333 72.0695 76.6841 70.2885 76.3235 68.5733C76.0848 67.434 75.6261 66.3517 74.9736 65.3884C74.3212 64.425 73.4877 63.5995 72.5209 62.9588C71.5541 62.3182 70.4729 61.8751 69.3391 61.6548C68.2053 61.4346 67.0411 61.4414 65.9131 61.6751L65.8876 61.6803Z" fill="#E30512"/>
</g>
<path d="M76.8473 120.322C76.5822 118.207 77.0224 116.4 77.9327 114.946C78.593 113.884 79.4984 113.022 80.5588 112.371C81.6042 111.73 82.7947 111.294 84.0452 111.088C86.026 110.76 88.1768 110.995 90.1176 111.857C90.8079 110.564 91.7883 109.463 93.0588 108.64C94.5244 107.696 96.3601 107.137 98.566 107.137C100.957 107.137 103.218 108.131 104.874 109.732C106.099 110.922 106.989 112.449 107.349 114.153C108.775 113.428 110.106 113.096 111.306 113.1C112.291 113.1 113.192 113.331 113.982 113.747C114.767 114.168 115.438 114.77 115.973 115.539C116.873 116.821 117.394 118.569 117.454 120.62C117.709 120.983 117.859 121.418 117.899 121.927C117.914 122.128 117.909 122.334 117.894 122.549C117.884 122.623 117.874 122.696 117.854 122.76L114.237 138.255C112.922 139.346 111.536 140.296 110.106 141.138L115.738 122.304C115.748 122.216 115.748 122.133 115.738 122.069C115.728 121.976 115.718 121.903 115.693 121.859C115.653 121.829 115.618 121.79 115.583 121.751C115.503 121.717 115.383 121.692 115.228 121.678C115.098 121.668 114.953 121.668 114.797 121.673C114.752 121.678 114.712 121.683 114.667 121.683H78.563C78.513 121.692 78.483 121.707 78.473 121.722C78.3829 121.918 78.3729 122.255 78.4129 122.676L83.9552 145.985C85.0156 146.455 84.4704 146.308 85.6458 146.386C87.9868 146.543 90.4828 145.98 92.8487 144.825C98.0858 142.259 102.648 136.815 103.498 129.775C102.478 129.291 101.777 128.272 101.777 127.087C101.787 125.447 103.148 124.106 104.833 124.106C106.519 124.106 107.885 125.443 107.885 127.092C107.885 128.463 106.939 129.619 105.654 129.966C104.728 137.789 99.6514 143.855 93.8241 146.709C91.113 148.036 88.2269 148.677 85.5108 148.491C84.6104 148.428 85.4157 148.692 84.5654 148.447C85.8809 153.289 86.9914 153.27 91.048 153.196C91.8033 153.186 92.6336 153.167 93.2088 153.167H93.4539C93.489 153.23 93.519 153.294 93.554 153.358C93.9341 154.053 94.5294 154.694 95.2597 155.282H93.2088C92.2134 155.282 91.6182 155.292 91.078 155.301C85.3157 155.409 84.0402 155.429 82.1794 147.796V147.791H82.1744L82.0844 147.41C81.2441 146.935 80.4488 146.342 79.7135 145.627C75.6318 141.647 73.581 133.829 76.3221 121.1C76.3771 120.836 76.5322 120.61 76.7373 120.464C76.7723 120.41 76.8073 120.366 76.8473 120.322ZM81.3241 144.222L77.4175 127.812C76.5972 136.037 78.3029 141.28 81.2291 144.139C81.2641 144.169 81.2941 144.198 81.3241 144.222ZM115.208 119.553C115.048 118.412 114.702 117.453 114.187 116.718C113.842 116.229 113.427 115.847 112.947 115.592C112.472 115.338 111.916 115.206 111.296 115.206C110.106 115.206 108.67 115.695 107.044 116.787C106.869 116.904 106.654 116.973 106.424 116.973C105.834 116.963 105.359 116.493 105.359 115.915C105.354 115.886 105.354 115.862 105.354 115.832C105.354 114.04 104.573 112.41 103.348 111.225C102.092 110.006 100.372 109.248 98.566 109.248C96.8003 109.248 95.3597 109.673 94.2393 110.393C93.0288 111.172 92.1684 112.317 91.6482 113.663C91.6232 113.732 91.5932 113.796 91.5532 113.854C91.2431 114.354 90.5778 114.51 90.0726 114.202C88.3319 113.159 86.2811 112.841 84.4053 113.159C83.4299 113.321 82.5096 113.654 81.7093 114.143C80.9289 114.628 80.2587 115.259 79.7735 116.033C79.1782 116.988 78.8631 118.167 78.9482 119.558H114.662C114.847 119.553 115.028 119.548 115.208 119.553ZM119.925 132.316C120.305 131.924 120.84 131.689 121.55 131.631L127.668 132.487C128.998 132.673 130.294 133.07 130.384 134.676C130.414 135.219 130.284 135.841 130.199 136.624L130.154 137.05C129.979 138.627 129.528 138.445 128.208 139.077C131.509 144.374 135.316 149.975 136.491 156.256C136.751 157.548 135.906 158.395 134.23 158.914L131.234 159.463C131.529 156.05 130.609 152.462 128.653 148.726C129.188 152.986 129.723 157.137 129.013 159.59L125.932 160.158C125.487 158.782 125.122 157.72 124.491 157.279L123.776 159.913L118.589 159.663C120.455 156.873 121.6 153.862 121.905 150.587C120.28 154.122 118.474 156.741 116.448 158.307C115.498 159.262 114.667 159.458 113.957 158.846C113.452 158.41 113.532 158.141 113.637 157.504C113.772 156.682 114.107 155.835 114.572 154.988C113.527 156.139 112.867 156.418 112.276 157.03C110.611 158.777 107.73 158.508 107.269 156.085C106.974 154.533 108.03 154.033 109.1 152.937L110.961 151.032C108.875 152.31 106.784 153.534 104.678 154.303C102.257 155.189 102.247 155.096 100.027 153.97C97.0354 152.457 94.8095 150.729 98.9711 149.686C106.634 147.219 114.107 144.315 119.995 137.78C119.374 137.412 119.034 136.938 118.929 136.379C118.764 135.547 119.324 132.933 119.925 132.316ZM128.228 105.37L123.686 127.89C123.266 131.66 127.748 132.003 128.458 128.297L132.9 105.742C132.795 102.599 129.158 101.909 128.228 105.37Z" fill="#E30512"/>
<path d="M194.984 153.294C194.984 153.294 203.048 150.1 211.079 150.1C219.11 150.1 223.954 192.691 226.62 193.207C231.465 193.207 260.402 184.689 266.84 184.689C270.612 185.205 268.986 190.012 268.986 190.012C268.986 190.012 222.849 201.725 217.484 202.79C213.712 203.306 211.046 204.919 210.493 202.273C209.941 199.595 214.785 195.885 216.931 186.302C219.077 175.654 212.639 158.618 209.941 157.037C207.242 155.456 198.691 159.166 197.065 159.166C195.439 159.166 193.358 154.359 194.984 153.294Z" fill="#E30512"/>
<path d="M269.172 175.5L262.74 148.093C262.262 147.009 261.199 145.902 259.587 146.356L224.36 155.091C223.288 155.05 222.152 156.62 222.63 157.704L229.095 185.112C229.605 186.198 230.635 187.303 232.247 186.85L267.454 178.63C269.068 178.144 269.662 177.102 269.172 175.5ZM251.724 182.28L247.393 183.177L244.171 169.199L226.827 173.335L225.351 169.532L243.215 165.416L240.013 150.922L244.344 150.025L247.566 164.003L265.43 159.887L266.333 164.185L248.47 168.301L251.724 182.28Z" fill="#E30512"/>
<path d="M215.891 205.436C211.599 206.5 208.38 206.5 207.827 203.306C207.274 200.628 210.526 196.917 213.745 189.464C213.192 189.464 213.745 189.464 213.192 189.464C206.754 189.464 201.389 194.788 201.389 201.176C201.389 207.565 206.754 212.889 213.192 212.889C219.11 212.889 223.401 208.63 224.995 203.306C220.703 204.403 217.484 204.919 215.891 205.436Z" fill="#E30512"/>
<path d="M255.037 203.855C255.037 208.275 258.647 211.856 263.101 211.856C267.555 211.856 271.164 208.275 271.164 203.855C271.164 199.434 267.555 195.853 263.101 195.853C258.647 195.885 255.037 199.434 255.037 203.855Z" fill="#E30512"/>
<g clip-path="url(#clip2_1008_1218)">
<path d="M396.93 204.236L390.426 200.623L381.434 174.589L355.845 160.372L326.264 164.976L307.478 158.851C305.254 157.96 302.733 158.855 301.571 160.915L294.45 173.537L305.636 179.751L305.728 179.803L305.728 179.803L305.773 179.827C309.372 173.448 317.496 171.173 323.925 174.745C330.354 178.316 332.646 186.379 329.047 192.758L357.078 208.331L357.309 208.461L357.309 208.46L357.354 208.485C360.953 202.105 369.077 199.831 375.506 203.402C381.935 206.974 384.227 215.036 380.628 221.415L388.805 225.959L398.314 209.105C399.286 207.382 398.666 205.201 396.93 204.236ZM335.007 169.789L354.544 166.749L370.779 175.77L370.836 175.801L364.849 186.413L347.961 177.03L335.007 169.789ZM375.868 178.596L376.46 178.925L380.554 190.793L378.688 194.101L369.881 189.208L375.868 178.596Z" fill="#E30512"/>
<path d="M372.688 208.396C369.04 206.369 364.421 207.673 362.386 211.281C360.343 214.902 361.645 219.478 365.293 221.505C368.929 223.525 373.553 222.241 375.596 218.62C377.631 215.012 376.325 210.416 372.688 208.396Z" fill="#E30512"/>
<path d="M321.108 179.739C317.459 177.712 312.84 179.015 310.805 182.623C308.762 186.244 310.064 190.821 313.712 192.847C317.348 194.868 321.972 193.583 324.015 189.963C326.05 186.355 324.744 181.759 321.108 179.739Z" fill="#E30512"/>
</g>
<defs>
<clipPath id="clip0_1008_1218">
<rect width="81.412" height="84.3507" fill="white" transform="matrix(0.966969 -0.254894 0.258569 0.965993 102.036 20.7515)"/>
</clipPath>
<clipPath id="clip1_1008_1218">
<rect width="79.7507" height="59.3942" fill="white" transform="matrix(-0.97937 0.202075 0.205065 0.978748 80.3741 23.9124)"/>
</clipPath>
<clipPath id="clip2_1008_1218">
<rect width="107.94" height="107.508" fill="white" transform="matrix(0.874148 0.48566 -0.491359 0.870957 329.167 112)"/>
</clipPath>
</defs>
</svg>
