<svg width="79" height="71" viewBox="0 0 79 71" fill="none" xmlns="http://www.w3.org/2000/svg">
<g clip-path="url(#clip0_815_1111)">
<path d="M47.7667 29.5645C44.6394 21.9588 39.8656 16.7008 37.102 17.7795C37.1185 17.7728 37.1185 17.7728 37.1349 17.766L33.9973 19.0561C33.9973 19.0561 28.8978 27.6248 19.1842 34.173C19.5582 36.0165 20.1889 38.1577 21.1616 40.5232C22.1342 42.8887 23.1853 44.8378 24.1999 46.4179C35.7034 44.2229 45.3621 46.7425 45.3621 46.7425L48.4997 45.4524C48.4833 45.4592 48.4833 45.4592 48.4668 45.4659C51.1996 44.2655 50.894 37.1703 47.7667 29.5645ZM46.5674 43.7888C46.206 43.9374 45.6796 43.7313 45.3879 43.5824C44.6953 43.2526 43.8909 42.604 43.0711 41.7312C41.2317 39.7797 39.4787 36.8708 38.1076 33.5362C36.7364 30.2015 35.9362 26.9009 35.8709 24.2199C35.8396 23.0229 35.9551 21.996 36.2153 21.2744C36.3247 20.9798 36.5471 20.4467 36.9085 20.2981C37.2699 20.1495 37.7963 20.3555 38.088 20.5044C38.7806 20.8342 39.585 21.4829 40.4048 22.3557C42.2442 24.3072 43.9972 27.216 45.3683 30.5507C46.7327 33.869 47.5233 37.1927 47.605 39.8669C47.6363 41.064 47.5208 42.0909 47.2606 42.8124C47.1512 43.107 46.9288 43.6402 46.5674 43.7888ZM18.5265 41.5874C17.7159 39.6162 17.0803 37.6499 16.63 35.7609C14.9408 36.7435 13.4246 37.5398 11.4862 38.3368C8.94001 39.3838 8.94001 39.3838 8.94001 39.3838L8.31656 43.8459L9.68771 47.1806L13.2628 49.8971C13.2628 49.8971 13.2628 49.8971 15.809 48.8502C17.7474 48.0531 19.3852 47.5526 21.2771 47.0627C20.2751 45.4199 19.337 43.5587 18.5265 41.5874ZM26.2618 47.8362L21.0308 48.8924L29.1405 59.7883C29.5615 60.345 30.3208 60.4169 30.8273 59.9205L34.5757 56.286C35.0821 55.7897 35.0584 55.0313 34.5098 54.5847L26.2618 47.8362ZM43.6022 36.5773C43.4708 36.6313 43.2621 36.5443 43.1462 36.4959C42.8777 36.3567 42.5687 36.1188 42.2587 35.7854C41.549 35.0402 40.8752 33.9153 40.3484 32.634C39.8216 31.3527 39.5092 30.0792 39.4894 29.0503C39.4751 28.5952 39.5208 28.1924 39.6204 27.921C39.6688 27.8051 39.7558 27.5964 39.8872 27.5424C40.0186 27.4884 40.2273 27.5754 40.3432 27.6238C40.6117 27.763 40.9207 28.0009 41.2307 28.3343C41.9404 29.0795 42.6142 30.2044 43.141 31.4857C43.6678 32.767 43.9802 34.0405 44 35.0694C44.0143 35.5245 43.9686 35.9273 43.869 36.1987C43.8371 36.3079 43.7336 36.5233 43.6022 36.5773Z" fill="#E30512"/>
</g>
<path d="M53.4586 11.4303L56.4452 0.878933L45.5811 19.6731L63.6256 8.40832L53.4586 11.4303Z" fill="#E30512"/>
<path d="M61.1693 26.8109L69.3737 19.535L50.0905 29.5054L71.3612 29.7478L61.1693 26.8109Z" fill="#E30512"/>
<path d="M64.2003 42.2925L74.7971 39.4713L53.0903 39.7298L71.991 49.4901L64.2003 42.2925Z" fill="#E30512"/>
<defs>
<clipPath id="clip0_815_1111">
<rect width="45.4695" height="45.4695" fill="white" transform="translate(0 28.2914) rotate(-22.3513)"/>
</clipPath>
</defs>
</svg>
